<svg xmlns="http://www.w3.org/2000/svg" width="512" height="512" viewBox="0 0 512 512"><title>au torres strait islands</title><g class="nc-icon-wrapper"><mask id="1708709720608-1792236_a"><circle cx="256" cy="256" r="256" fill="#fff"></circle></mask><g mask="url(#1708709720608-1792236_a)"><path fill="#0052b4" d="m0 128 256-32 256 32v256l-256 32L0 384Z"></path><path fill="#333" d="m0 96 256-32 256 32v32H0Z"></path><path fill="#6da544" d="M0 0h512v96H0Z"></path><path fill="#333" d="m0 416 256 32 256-32v-32H0Z"></path><path fill="#6da544" d="M0 512h512v-96H0Z"></path><path fill="#eee" d="M245 144c-106 32-101 112-67 186l-40 38 73-27v-98c24-35 66-35 90 0v98l73 27-40-38c34-74 39-154-67-186l-11 46-11-46zm11 83-9 27h-28l23 17-9 28 23-17 23 17-9-28 24-17h-29l-9-27z"></path></g></g></svg>