<svg xmlns="http://www.w3.org/2000/svg" width="512" height="512" viewBox="0 0 512 512"><title>et si</title><g class="nc-icon-wrapper"><mask id="1708709720616-1553082_a"><circle cx="256" cy="256" r="256" fill="#fff"></circle></mask><g mask="url(#1708709720616-1553082_a)"><path fill="#496e2d" d="M0 0h512v149H0Z"></path><path fill="#eee" d="M0 149h512v32H0z"></path><path fill="#d80027" d="M0 363h512v149H0Z"></path><path fill="#eee" d="M0 331h512v32H0z"></path><path fill="#0052b4" d="M0 181h512v150H0Z"></path><path fill="#eee" d="m312 317 104-75H288l104 75-40-122zm-203-32 49-36H98l49 36-19-58zm64 32 49-36h-60l49 36-19-58Zm0-64 49-36h-60l49 36-19-58Z"></path></g></g></svg>