<svg xmlns="http://www.w3.org/2000/svg" width="512" height="512" viewBox="0 0 512 512"><title>fm</title><g class="nc-icon-wrapper"><mask id="1708709720617-5641824_a"><circle cx="256" cy="256" r="256" fill="#fff"></circle></mask><g mask="url(#1708709720617-5641824_a)"><path fill="#338af3" d="M0 0h512v512H0z"></path><path fill="#eee" d="m256 111.3 11 34h35.8l-29 21 11.1 34-28.9-21-29 21 11.1-34-29-21H245zM111.3 256l34-11v-35.8l21 29 34-11.1-21 28.9 21 29-34-11.1-21 29V267zM256 400.7l-11-34h-35.8l29-21-11.1-34 28.9 21 29-21-11.1 34 29 21H267zM400.7 256l-34 11v35.8l-21-29-34 11.1 21-28.9-21-29 34 11.1 21-29V245z"></path></g></g></svg>