<svg xmlns="http://www.w3.org/2000/svg" width="512" height="512" data-name="Layer 1" viewBox="0 0 512 512"><title>it 65</title><g class="nc-icon-wrapper"><defs><mask id="1708709720628-974363_a" width="512" height="512" x="0" y="0" maskUnits="userSpaceOnUse"><circle cx="256" cy="256" r="256" fill="#fff"></circle></mask></defs><g mask="url(#1708709720628-974363_a)"><path fill="#d80027" d="M0 0h512v512H0V0Z"></path><path fill="#0052b4" d="M256 404.4S368 378.7 368 293v-77l-88 80-78 86c27.3 16.3 54 22.4 54 22.4Z"></path><path fill="#eee" d="M144 152v141a97 97 0 0 0 1.6 17.4L224 240l80-88H144Z"></path><path fill="#6da544" d="M304 152 145.5 310.5c6.5 34 31.7 57 56.4 71.6l166-166v-64h-64Z"></path></g></g></svg>