<svg xmlns="http://www.w3.org/2000/svg" width="512" height="512" viewBox="0 0 512 512"><title>mn</title><g class="nc-icon-wrapper"><mask id="1708709720634-8767474_a"><circle cx="256" cy="256" r="256" fill="#fff"></circle></mask><g mask="url(#1708709720634-8767474_a)"><path fill="#a2001d" d="M0 0h167l84.9 45L345 0h167v512H345l-87.7-48.1L167 512H0z"></path><path fill="#0052b4" d="M167 0h178v512H167z"></path><g fill="#ffda44"><path d="M122.4 256h22.3v89h-22.3zm-89 0h22.3v89H33.4z"></path><circle cx="89" cy="289.4" r="22.3"></circle><circle cx="89" cy="211.5" r="11.1"></circle><path d="M66.8 322.8h44.5V345H66.8zm0-89h44.5V256H66.8zM89 133.5l8 24.2h25.4l-20.6 15 7.9 24.3L89 182l-20.6 15 7.9-24.3-20.6-15h25.5z"></path></g></g></g></svg>