<svg xmlns="http://www.w3.org/2000/svg" width="512" height="512" viewBox="0 0 512 512"><title>sami</title><g class="nc-icon-wrapper"><mask id="1708709922550-9922338_a"><circle cx="256" cy="256" r="256" fill="#fff"></circle></mask><g mask="url(#1708709922550-9922338_a)"><path fill="#ffda44" d="M199 0h32l32 256-32 256h-32l-32-256Z"></path><path fill="#496e2d" d="M167 0h32v512h-32l-32-256Z"></path><path fill="#0052b4" d="M231 0h281v512H231Z"></path><path fill="#d80027" d="M0 0h167v512H0Zm199 132-32 16 32 16a92 92 0 1 1 0 184l-32 16 32 16a124 124 0 0 0 0-248z"></path><path fill="#0052b4" d="M199 132a124 124 0 0 0 0 248v-32a92 92 0 1 1 0-184z"></path></g></g></svg>