<svg xmlns="http://www.w3.org/2000/svg" width="512" height="512" viewBox="0 0 512 512"><title>soviet union</title><g class="nc-icon-wrapper"><mask id="1708709922552-4685263_a"><circle cx="256" cy="256" r="256" fill="#fff"></circle></mask><g mask="url(#1708709922552-4685263_a)"><path fill="#d80027" d="M0 0h512v512H0z"></path><path fill="#ffda44" d="m90 243 25 25 21-21 115 115 18-18-115-115 29-29-44-6z"></path><path fill="#ffda44" d="M173 166a93 93 0 0 1 44 40c22 38 16 83-14 100-22 13-52 7-75-15l-58 53 18 18 42-46c27 24 63 30 90 14 36-21 45-73 20-116a95 95 0 0 0-67-48zm-43-6 105-77H105l105 77-40-124z"></path><path fill="#d80027" d="m153 129 45-34h-56l45 34-17-54z"></path></g></g></svg>