<svg xmlns="http://www.w3.org/2000/svg" width="512" height="512" viewBox="0 0 512 512"><title>st</title><g class="nc-icon-wrapper"><mask id="1708709922553-9554706_a"><circle cx="256" cy="256" r="256" fill="#fff"></circle></mask><g mask="url(#1708709922553-9554706_a)"><path fill="#6da544" d="M0 0h512v167l-52.6 83.8L512 345v167H0l72-264.3z"></path><path fill="#ffda44" d="M114.9 166.9H512v178H114.9z"></path><path fill="#d80027" d="M0 0v512l256-256z"></path><path fill="#333" d="m325 211.5 11.1 34H372l-29 21 11.1 34-29-21-28.9 21 11-34-28.8-21H314zm111.4 0 11 34h35.8l-29 21 11.1 34-29-21-28.9 21 11.1-34-29-21h35.8z"></path></g></g></svg>