<svg xmlns="http://www.w3.org/2000/svg" width="512" height="512" viewBox="0 0 512 512"><title>us co</title><g class="nc-icon-wrapper"><mask id="1708709922557-9049121_a"><circle cx="256" cy="256" r="256" fill="#fff"></circle></mask><g mask="url(#1708709922557-9049121_a)"><path fill="#0052b4" d="M0 0h512v167l-64 89 64 89v167H0V345l64-89-64-89Z"></path><path fill="#eee" d="M0 167h512v178H0z"></path><path fill="#d80027" d="M344.3 299.8A128 128 0 0 1 201.8 382 128 128 0 0 1 96 256a128 128 0 0 1 105.8-126 128 128 0 0 1 142.5 82.2L224 256z"></path><circle cx="224" cy="256" r="64" fill="#ffda44"></circle></g></g></svg>