<svg xmlns="http://www.w3.org/2000/svg" width="512" height="512" viewBox="0 0 512 512"><title>za</title><g class="nc-icon-wrapper"><mask id="1708709922562-6640698_a"><circle cx="256" cy="256" r="256" fill="#fff"></circle></mask><g mask="url(#1708709922562-6640698_a)"><path fill="#eee" d="m0 0 192 256L0 512h47l465-189v-34l-32-33 32-33v-34L47 0Z"></path><path fill="#333" d="M0 142v228l140-114z"></path><path fill="#ffda44" d="M192 256 0 95v47l114 114L0 370v47z"></path><path fill="#6da544" d="M512 223H223L0 0v94l161 162L0 418v94l223-223h289z"></path><path fill="#d80027" d="M512 0H47l189 189h276z"></path><path fill="#0052b4" d="M512 512H47l189-189h276z"></path></g></g></svg>