<svg width="24" height="24" xmlns="http://www.w3.org/2000/svg" viewBox="0 0 24 24"><title>life buoy 01</title><g fill="none" class="nc-icon-wrapper"><path opacity=".4" d="M9.13625 9.13628L4.92892 4.92896M4.92892 19.0711L9.16796 14.8321M14.8611 14.8638L19.0684 19.0711M19.0684 4.92896L14.8287 9.16862" stroke="#F7F7F7" stroke-width="2" stroke-linecap="round" stroke-linejoin="round"></path><path d="M12 22C17.5228 22 22 17.5228 22 12C22 6.47715 17.5228 2 12 2C6.47715 2 2 6.47715 2 12C2 17.5228 6.47715 22 12 22Z" stroke="#F7F7F7" stroke-width="2" stroke-linecap="round" stroke-linejoin="round"></path><path d="M12 16C14.2091 16 16 14.2091 16 12C16 9.79086 14.2091 8 12 8C9.79086 8 8 9.79086 8 12C8 14.2091 9.79086 16 12 16Z" stroke="#F7F7F7" stroke-width="2" stroke-linecap="round" stroke-linejoin="round"></path></g></svg>