<svg xmlns="http://www.w3.org/2000/svg" viewBox="0 0 32 24"><title>bq sa</title><g fill="none" class="nc-icon-wrapper"><g clip-path="url(#1708678541013-2534917_clip0_270_67332)"><path fill="#fff" d="M0 0H32V24H0z"></path><path fill-rule="evenodd" clip-rule="evenodd" d="M0 0H32V24H0V0Z" fill="#fff"></path><path fill-rule="evenodd" clip-rule="evenodd" d="M0 11.664V0H16L0 11.664Z" fill="#F00000"></path><path fill-rule="evenodd" clip-rule="evenodd" d="M32 11.664V0H16L32 11.664Z" fill="#F00000"></path><path fill-rule="evenodd" clip-rule="evenodd" d="M0 11.664V24H16L0 11.664Z" fill="#00268D"></path><path fill-rule="evenodd" clip-rule="evenodd" d="M32 11.664V24.336L16 24L32 11.664Z" fill="#00268D"></path><path fill-rule="evenodd" clip-rule="evenodd" d="M15.714 14.2563L12.1965 16.7633L13.4873 12.622L10 10.087H14.3446L15.714 6L17.1655 10.087H21.3918L17.9349 12.622L19.2489 16.7633L15.714 14.2563Z" fill="#FEDA00"></path></g><defs><clipPath id="1708678541013-2534917_clip0_270_67332"><path fill="#fff" d="M0 0H32V24H0z"></path></clipPath></defs></g></svg>