<svg xmlns="http://www.w3.org/2000/svg" viewBox="0 0 32 24"><title>cf</title><g fill="none" class="nc-icon-wrapper"><g clip-path="url(#1708678541023-7649598_clip0_270_67542)"><path fill="#fff" d="M0 0H32V24H0z"></path><path fill-rule="evenodd" clip-rule="evenodd" d="M0 0H32V6H0V0Z" fill="#3D58DB"></path><path fill-rule="evenodd" clip-rule="evenodd" d="M0 6H32V12H0V6Z" fill="#F7FCFF"></path><path fill-rule="evenodd" clip-rule="evenodd" d="M0 12H32V18H0V12Z" fill="#73BE4A"></path><path fill-rule="evenodd" clip-rule="evenodd" d="M0 18H32V24H0V18Z" fill="#FFD018"></path><path fill-rule="evenodd" clip-rule="evenodd" d="M4.5294 5.41612L2.10486 7.09783L2.87959 4.21747L1.09973 2.37749L3.50977 2.278L4.5294 -0.570251L5.54904 2.278H7.95498L6.17921 4.21747L7.06854 6.92782L4.5294 5.41612Z" fill="#FECA00"></path><path fill-rule="evenodd" clip-rule="evenodd" d="M12 0H20V24H12V0Z" fill="#E11C1B"></path></g><defs><clipPath id="1708678541023-7649598_clip0_270_67542"><path fill="#fff" d="M0 0H32V24H0z"></path></clipPath></defs></g></svg>