<svg xmlns="http://www.w3.org/2000/svg" viewBox="0 0 32 24"><title>cw</title><g fill="none" class="nc-icon-wrapper"><g clip-path="url(#1708678541026-9957177_clip0_270_67376)"><path fill="#fff" d="M0 0H32V24H0z"></path><path fill-rule="evenodd" clip-rule="evenodd" d="M0 0V24H32V0H0Z" fill="#2E42A5"></path><mask id="1708678541026-9957177_mask0_270_67376" style="mask-type:luminance" maskUnits="userSpaceOnUse" x="0" y="0" width="32" height="24"><path fill-rule="evenodd" clip-rule="evenodd" d="M0 0V24H32V0H0Z" fill="#fff"></path></mask><g mask="url(#1708678541026-9957177_mask0_270_67376)"><path fill-rule="evenodd" clip-rule="evenodd" d="M4.25442 6.14923L2.26558 7.19891L3.22584 5.33053L2 3.96315L3.52334 3.90693L4.25442 2L4.81233 3.90693L6.59497 3.96315L5.31147 5.33053L6.12572 7.19891L4.25442 6.14923Z" fill="#F7FCFF"></path><path fill-rule="evenodd" clip-rule="evenodd" d="M11.3523 11.0765L8.89764 12.1048L9.86061 9.52815L7.72644 7.79927H10.2837L11.3523 5.01218L12.1677 7.79927H14.7289L12.9089 9.52815L13.8126 12.1048L11.3523 11.0765Z" fill="#F7FCFF"></path><path fill-rule="evenodd" clip-rule="evenodd" d="M0 14V18H32V14H0Z" fill="#F9E813"></path></g></g><defs><clipPath id="1708678541026-9957177_clip0_270_67376"><path fill="#fff" d="M0 0H32V24H0z"></path></clipPath></defs></g></svg>