<svg xmlns="http://www.w3.org/2000/svg" viewBox="0 0 32 24"><title>gl</title><g fill="none" class="nc-icon-wrapper"><g clip-path="url(#1708678541041-9277407_clip0_270_67373)"><path fill="#fff" d="M0 0H32V24H0z"></path><path fill-rule="evenodd" clip-rule="evenodd" d="M0 12H32V24H0V12Z" fill="#C51918"></path><mask id="1708678541041-9277407_mask0_270_67373" style="mask-type:luminance" maskUnits="userSpaceOnUse" x="0" y="12" width="32" height="12"><path fill-rule="evenodd" clip-rule="evenodd" d="M0 12H32V24H0V12Z" fill="#fff"></path></mask><g mask="url(#1708678541041-9277407_mask0_270_67373)"><path fill-rule="evenodd" clip-rule="evenodd" d="M12 20C16.4183 20 20 16.4183 20 12C20 7.58172 16.4183 4 12 4C7.58172 4 4 7.58172 4 12C4 16.4183 7.58172 20 12 20Z" fill="#F7FCFF"></path></g><path fill-rule="evenodd" clip-rule="evenodd" d="M0 0H32V12H0V0Z" fill="#F7FCFF"></path><mask id="1708678541041-9277407_mask1_270_67373" style="mask-type:luminance" maskUnits="userSpaceOnUse" x="0" y="0" width="32" height="12"><path fill-rule="evenodd" clip-rule="evenodd" d="M0 0H32V12H0V0Z" fill="#fff"></path></mask><g mask="url(#1708678541041-9277407_mask1_270_67373)"><path fill-rule="evenodd" clip-rule="evenodd" d="M12 20C16.4183 20 20 16.4183 20 12C20 7.58172 16.4183 4 12 4C7.58172 4 4 7.58172 4 12C4 16.4183 7.58172 20 12 20Z" fill="#C51918"></path></g></g><defs><clipPath id="1708678541041-9277407_clip0_270_67373"><path fill="#fff" d="M0 0H32V24H0z"></path></clipPath></defs></g></svg>