<svg xmlns="http://www.w3.org/2000/svg" viewBox="0 0 32 24"><title>gr</title><g fill="none" class="nc-icon-wrapper"><g clip-path="url(#1708678541043-7044549_clip0_270_67385)"><path fill="#fff" d="M0 0H32V24H0z"></path><path fill-rule="evenodd" clip-rule="evenodd" d="M0 0H32V24H0V0Z" fill="#F7FCFF"></path><path fill-rule="evenodd" clip-rule="evenodd" d="M0 5.5H32V8.45683H0V5.5ZM0 10.8151H32V13.7719H0V10.8151ZM32 15.9432H0V18.9H32V15.9432Z" fill="#4564F9"></path><path fill-rule="evenodd" clip-rule="evenodd" d="M0 0H32V3H0V0Z" fill="#4564F9"></path><path fill="#4564F9" d="M0 21H32V24H0z"></path><path fill-rule="evenodd" clip-rule="evenodd" d="M0 0H15V13.8H0V0Z" fill="#4564F9"></path><path fill-rule="evenodd" clip-rule="evenodd" d="M6 0H9V5.50386H15V8.43867H9V14.5H6V8.43867H0V5.50386H6V0Z" fill="#F7FCFF"></path></g><defs><clipPath id="1708678541043-7044549_clip0_270_67385"><path fill="#fff" d="M0 0H32V24H0z"></path></clipPath></defs></g></svg>