<svg xmlns="http://www.w3.org/2000/svg" viewBox="0 0 32 24"><title>jo</title><g fill="none" class="nc-icon-wrapper"><g clip-path="url(#1708678541054-9006976_clip0_270_67508)"><path fill="#fff" d="M0 0H32V24H0z"></path><path fill-rule="evenodd" clip-rule="evenodd" d="M0 0V24H32V0H0Z" fill="#F7FCFF"></path><mask id="1708678541054-9006976_mask0_270_67508" style="mask-type:luminance" maskUnits="userSpaceOnUse" x="0" y="0" width="32" height="24"><path fill-rule="evenodd" clip-rule="evenodd" d="M0 0V24H32V0H0Z" fill="#fff"></path></mask><g mask="url(#1708678541054-9006976_mask0_270_67508)"><path fill-rule="evenodd" clip-rule="evenodd" d="M0 0V8H32V0H0Z" fill="#272727"></path><path fill-rule="evenodd" clip-rule="evenodd" d="M0 16V24H32V16H0Z" fill="#093"></path></g><path fill-rule="evenodd" clip-rule="evenodd" d="M0 0V24L20 12L0 0Z" fill="#E31D1C"></path><mask id="1708678541054-9006976_mask1_270_67508" style="mask-type:luminance" maskUnits="userSpaceOnUse" x="0" y="0" width="20" height="24"><path fill-rule="evenodd" clip-rule="evenodd" d="M0 0V24L20 12L0 0Z" fill="#fff"></path></mask><g mask="url(#1708678541054-9006976_mask1_270_67508)"><path fill-rule="evenodd" clip-rule="evenodd" d="M9.00179 13.8707L7.13112 15L7.55781 12.7962L6 11.1469L8.10936 11.0578L9.00179 9L9.89423 11.0578H12L10.4458 12.7962L10.9137 15L9.00179 13.8707Z" fill="#F7FCFF"></path></g></g><defs><clipPath id="1708678541054-9006976_clip0_270_67508"><path fill="#fff" d="M0 0H32V24H0z"></path></clipPath></defs></g></svg>