<svg xmlns="http://www.w3.org/2000/svg" viewBox="0 0 32 24"><title>lr</title><g fill="none" class="nc-icon-wrapper"><g clip-path="url(#1708678541065-7124400_clip0_270_67399)"><path fill="#fff" d="M0 0H32V24H0z"></path><path fill-rule="evenodd" clip-rule="evenodd" d="M0 0H32V24H0V0Z" fill="#F7FCFF"></path><path fill="#E31D1C" d="M0.027 5.5H32.027V8.5H0.027z"></path><path fill-rule="evenodd" clip-rule="evenodd" d="M0 0H32V3H0V0Z" fill="#E31D1C"></path><path fill="#E31D1C" d="M-0.059 11H31.941V14H-0.059z"></path><path fill="#E31D1C" d="M0.112 16.4H32.112V19.4H0.112z"></path><path fill="#E31D1C" d="M0.102 21.5H32.102V24.5H0.102z"></path><path fill-rule="evenodd" clip-rule="evenodd" d="M0 0H16V14H0V0Z" fill="#3D58DB"></path><path fill-rule="evenodd" clip-rule="evenodd" d="M8.13247 9.21309L5.2111 11.2394L6.14459 7.7688L4 5.55178L6.90389 5.43191L8.13247 2L9.36105 5.43191H12.26L10.1204 7.7688L11.1919 11.0346L8.13247 9.21309Z" fill="#F7FCFF"></path></g><defs><clipPath id="1708678541065-7124400_clip0_270_67399"><path fill="#fff" d="M0 0H32V24H0z"></path></clipPath></defs></g></svg>