<svg xmlns="http://www.w3.org/2000/svg" viewBox="0 0 32 24"><title>ne</title><g fill="none" class="nc-icon-wrapper"><g clip-path="url(#1708678541073-4636661_clip0_270_67502)"><path fill="#fff" d="M0 0H32V24H0z"></path><path fill-rule="evenodd" clip-rule="evenodd" d="M0 0V24H32V0H0Z" fill="#F7FCFF"></path><mask id="1708678541073-4636661_mask0_270_67502" style="mask-type:luminance" maskUnits="userSpaceOnUse" x="0" y="0" width="32" height="24"><path fill-rule="evenodd" clip-rule="evenodd" d="M0 0V24H32V0H0Z" fill="#fff"></path></mask><g mask="url(#1708678541073-4636661_mask0_270_67502)"><path fill-rule="evenodd" clip-rule="evenodd" d="M0 0V8H32V0H0Z" fill="#FC6500"></path><path fill-rule="evenodd" clip-rule="evenodd" d="M0 16V24H32V16H0Z" fill="#5EAA22"></path><path fill-rule="evenodd" clip-rule="evenodd" d="M16 16C18.2091 16 20 14.2091 20 12C20 9.79086 18.2091 8 16 8C13.7909 8 12 9.79086 12 12C12 14.2091 13.7909 16 16 16Z" fill="#FC6500"></path></g></g><defs><clipPath id="1708678541073-4636661_clip0_270_67502"><path fill="#fff" d="M0 0H32V24H0z"></path></clipPath></defs></g></svg>