<svg xmlns="http://www.w3.org/2000/svg" viewBox="0 0 32 24"><title>pr</title><g fill="none" class="nc-icon-wrapper"><g clip-path="url(#1708678541081-4348076_clip0_270_67517)"><path fill="#fff" d="M0 0H32V24H0z"></path><path fill-rule="evenodd" clip-rule="evenodd" d="M0 0V24H32V0H0Z" fill="#EF0000"></path><mask id="1708678541081-4348076_mask0_270_67517" style="mask-type:luminance" maskUnits="userSpaceOnUse" x="0" y="0" width="32" height="24"><path fill-rule="evenodd" clip-rule="evenodd" d="M0 0V24H32V0H0Z" fill="#fff"></path></mask><g mask="url(#1708678541081-4348076_mask0_270_67517)"><path d="M0 8H-2V10V14V16H0H32H34V14V10V8H32H0Z" fill="#EF0000" stroke="#F7FCFF" stroke-width="4"></path></g><path fill-rule="evenodd" clip-rule="evenodd" d="M0 0V24L18 12L0 0Z" fill="#3D58DB"></path><mask id="1708678541081-4348076_mask1_270_67517" style="mask-type:luminance" maskUnits="userSpaceOnUse" x="0" y="0" width="18" height="24"><path fill-rule="evenodd" clip-rule="evenodd" d="M0 0V24L18 12L0 0Z" fill="#fff"></path></mask><g mask="url(#1708678541081-4348076_mask1_270_67517)"><path fill-rule="evenodd" clip-rule="evenodd" d="M6.68777 14.2169L3.01584 16.1549L4.8035 12.2609L2.52551 10.1808L5.338 10.077L6.68777 6.5563L7.71781 10.077H10.5255L8.65412 12.2609L10.1427 16.1549L6.68777 14.2169Z" fill="#F7FCFF"></path></g></g><defs><clipPath id="1708678541081-4348076_clip0_270_67517"><path fill="#fff" d="M0 0H32V24H0z"></path></clipPath></defs></g></svg>