<svg xmlns="http://www.w3.org/2000/svg" viewBox="0 0 32 24"><title>st</title><g fill="none" class="nc-icon-wrapper"><g clip-path="url(#1708678541098-8118552_clip0_270_67513)"><path fill="#fff" d="M0 0H32V24H0z"></path><path fill-rule="evenodd" clip-rule="evenodd" d="M0 0V24H32V0H0Z" fill="#FBCD17"></path><path fill-rule="evenodd" clip-rule="evenodd" d="M0 0V8H32V0H0Z" fill="#73BE4A"></path><path fill-rule="evenodd" clip-rule="evenodd" d="M0 16V24H32V16H0Z" fill="#73BE4A"></path><path fill-rule="evenodd" clip-rule="evenodd" d="M0 0V24L10 12L0 0Z" fill="#C51918"></path><path fill-rule="evenodd" clip-rule="evenodd" d="M17.0018 13.8707L15.1311 15L15.5578 12.7962L14 11.1469L16.1094 11.0578L17.0018 9L17.8942 11.0578H20L18.4458 12.7962L18.9137 15L17.0018 13.8707Z" fill="#272727"></path><path fill-rule="evenodd" clip-rule="evenodd" d="M25.0018 13.8707L23.1311 15L23.5578 12.7962L22 11.1469L24.1094 11.0578L25.0018 9L25.8942 11.0578H28L26.4458 12.7962L26.9137 15L25.0018 13.8707Z" fill="#272727"></path></g><defs><clipPath id="1708678541098-8118552_clip0_270_67513"><path fill="#fff" d="M0 0H32V24H0z"></path></clipPath></defs></g></svg>