<svg xmlns="http://www.w3.org/2000/svg" viewBox="0 0 32 24"><title>tg</title><g fill="none" class="nc-icon-wrapper"><g clip-path="url(#1708678541102-9661806_clip0_270_67437)"><path fill="#fff" d="M0 0H32V24H0z"></path><path d="M0 -1H-1V0V24V25H0H32H33V24V0V-1H32H0Z" fill="#5EAA22" stroke="#F7FCFF" stroke-width="2"></path><path fill-rule="evenodd" clip-rule="evenodd" d="M0 6V10H32V6H0Z" fill="#FECA00"></path><path fill-rule="evenodd" clip-rule="evenodd" d="M0 14V18H32V14H0Z" fill="#FECA00"></path><path fill="#F50101" d="M0 0H16V14H0z"></path><path fill-rule="evenodd" clip-rule="evenodd" d="M8.25 10.1442L4.53068 12.4456L5.97463 8.58206L3 5.97918H6.64778L8.25 2.12982L9.4727 5.97918H13.0766L10.5454 8.58206L11.7911 12.2561L8.25 10.1442Z" fill="#F7FCFF"></path></g><defs><clipPath id="1708678541102-9661806_clip0_270_67437"><path fill="#fff" d="M0 0H32V24H0z"></path></clipPath></defs></g></svg>