<svg xmlns="http://www.w3.org/2000/svg" viewBox="0 0 32 24"><title>tl</title><g fill="none" class="nc-icon-wrapper"><g clip-path="url(#1708678541103-6313303_clip0_270_67530)"><path fill="#fff" d="M0 0H32V24H0z"></path><path d="M0 -1H-1V0V24V25H0H32H33V24V0V-1H32H0Z" fill="#E31D1C" stroke="#F7FCFF" stroke-width="2"></path><path fill-rule="evenodd" clip-rule="evenodd" d="M0 0L24 12L0 24V0Z" fill="#FECA00"></path><path fill-rule="evenodd" clip-rule="evenodd" d="M0 0L16 12L0 24V0Z" fill="#272727"></path><path fill-rule="evenodd" clip-rule="evenodd" d="M6.64792 14.4086L4.6284 16.5086L4.41743 13.5232L1.84197 11.9366L4.52784 11.0938L4.96709 8.13567L6.82657 10.4779L9.5386 9.75122L8.13685 12.5266L9.49997 15.2033L6.64792 14.4086Z" fill="#F7FCFF"></path></g><defs><clipPath id="1708678541103-6313303_clip0_270_67530"><path fill="#fff" d="M0 0H32V24H0z"></path></clipPath></defs></g></svg>