<svg width="24" height="24" xmlns="http://www.w3.org/2000/svg" viewBox="0 0 24 24"><title>code circle 03</title><g fill="none" class="nc-icon-wrapper"><path opacity=".12" d="M12 22C17.5228 22 22 17.5228 22 12C22 6.47715 17.5228 2 12 2C6.47715 2 2 6.47715 2 12C2 17.5228 6.47715 22 12 22Z" fill="#F7F7F7"></path><path d="M15.5 15L18.5 12L15.5 9M8.5 9L5.5 12L8.5 15M13 7L11 17M22 12C22 17.5228 17.5228 22 12 22C6.47715 22 2 17.5228 2 12C2 6.47715 6.47715 2 12 2C17.5228 2 22 6.47715 22 12Z" stroke="#F7F7F7" stroke-width="2" stroke-linecap="round" stroke-linejoin="round"></path></g></svg>