<svg xmlns="http://www.w3.org/2000/svg" viewBox="0 0 24 24"><title>verified</title><g fill="none" class="nc-icon-wrapper"><g clip-path="url(#1708934545174-8871039_clip0_16_35)"><path d="M18.5327 4.25036C18.7606 4.80163 19.1982 5.23982 19.7491 5.46859L21.6809 6.26878C22.2322 6.49714 22.6703 6.93516 22.8986 7.48647C23.127 8.03778 23.127 8.65723 22.8986 9.20855L22.099 11.139C21.8705 11.6905 21.8702 12.3106 22.0997 12.8619L22.898 14.7918C23.0112 15.0648 23.0695 15.3575 23.0695 15.6531C23.0696 15.9487 23.0114 16.2414 22.8982 16.5145C22.7851 16.7876 22.6193 17.0358 22.4102 17.2447C22.2012 17.4537 21.953 17.6195 21.6799 17.7325L19.7494 18.5321C19.1982 18.7601 18.76 19.1976 18.5312 19.7485L17.731 21.6803C17.5027 22.2317 17.0646 22.6697 16.5133 22.898C15.962 23.1264 15.3426 23.1264 14.7912 22.898L12.8608 22.0984C12.3095 21.8706 11.6902 21.8711 11.1393 22.0997L9.20743 22.8988C8.65642 23.1266 8.03751 23.1264 7.48665 22.8982C6.93578 22.67 6.49801 22.2325 6.26949 21.6818L5.46906 19.7494C5.24112 19.1981 4.80359 18.76 4.25267 18.5312L2.32083 17.731C1.76976 17.5027 1.33187 17.065 1.10343 16.514C0.874983 15.963 0.874673 15.3438 1.10257 14.7926L1.90218 12.8622C2.12998 12.3108 2.12952 11.6916 1.90089 11.1406L1.10242 9.20741C0.989215 8.93435 0.930922 8.64166 0.930875 8.34607C0.930828 8.05047 0.989026 7.75777 1.10215 7.48467C1.21527 7.21158 1.38109 6.96345 1.59014 6.75446C1.79919 6.54548 2.04737 6.37974 2.3205 6.2667L4.25095 5.46709C4.80174 5.23935 5.23967 4.80237 5.4686 4.25208L6.26879 2.32024C6.49716 1.76893 6.93517 1.33091 7.48649 1.10255C8.0378 0.874191 8.65725 0.874191 9.20856 1.10255L11.139 1.90217C11.6903 2.12997 12.3096 2.1295 12.8605 1.90088L14.7932 1.10379C15.3444 0.875559 15.9637 0.875606 16.515 1.10392C17.0662 1.33224 17.5041 1.77013 17.7325 2.3213L18.5329 4.25371L18.5327 4.25036Z" fill="#2E90FA"></path><path fill-rule="evenodd" clip-rule="evenodd" d="M16.6999 8.85437C16.8602 8.60255 16.9139 8.29735 16.8492 8.00592C16.7845 7.71449 16.6067 7.46069 16.3549 7.30037C16.1031 7.14005 15.7979 7.08633 15.5064 7.15103C15.215 7.21573 14.9612 7.39355 14.8009 7.64537L10.3954 14.5679L8.37939 12.0479C8.19301 11.8147 7.92166 11.6652 7.62502 11.6322C7.32838 11.5991 7.03077 11.6852 6.79764 11.8716C6.56452 12.058 6.41498 12.3294 6.38193 12.626C6.34887 12.9226 6.43501 13.2202 6.62139 13.4534L9.62139 17.2034C9.7332 17.3433 9.8768 17.4545 10.0402 17.5278C10.2037 17.601 10.3823 17.6342 10.5611 17.6245C10.74 17.6148 10.9139 17.5626 11.0685 17.4721C11.2231 17.3816 11.3538 17.2556 11.4499 17.1044L16.6999 8.85437V8.85437Z" fill="#fff"></path></g><defs><clipPath id="1708934545174-8871039_clip0_16_35"><path fill="#fff" d="M0 0H24V24H0z"></path></clipPath></defs></g></svg>