<svg width="32" height="32" viewBox="0 0 32 32" fill="none" xmlns="http://www.w3.org/2000/svg">
<path d="M26.1824 10.2222L30.544 19.9122L24.3771 30.4471L9.56433 18.3781L17.1396 11.0766L26.1824 10.2222Z" fill="url(#paint0_linear_629_4665)"/>
<path d="M19.8852 19.5415L24.3771 30.4475L10.6926 25.7435L9.56433 18.3785L19.8852 19.5415Z" fill="#BB4EFC"/>
<path d="M11.0999 4.31224L17.3975 7.53967L11.7298 24.7008L0.31543 24.582L2.76754 19.1442L0.31543 12.1952L11.0999 4.31224Z" fill="#078EFC"/>
<path d="M19.0002 0.218967L21.9785 10.3538L0.31543 12.1952L7.20503 0.218967H19.0002Z" fill="url(#paint1_linear_629_4665)"/>
<path d="M30.544 6.63723L17.8702 9.64523L0.31543 24.5819L11.6379 30.4475L21.4734 20.3076L30.544 6.63723Z" fill="url(#paint2_linear_629_4665)"/>
<path d="M5.35361 5.25714H25.5058V25.4094H5.35361V5.25714Z" fill="black"/>
<path d="M7.36868 22.0841H14.9257V23.2933H7.36868V22.0841Z" fill="white"/>
<path d="M6.67749 11.8308V11.8061C6.5952 9.38558 8.49097 7.35632 10.9115 7.27449C10.9527 7.27312 10.9934 7.27221 11.0345 7.27221C12.2414 7.21049 13.4208 7.64478 14.2994 8.47449L13.1474 9.94009C12.5755 9.35861 11.7902 9.03723 10.9746 9.05095C9.56526 9.15426 8.50149 10.3716 8.58835 11.7819V11.8066C8.4704 13.2196 9.52046 14.4603 10.9335 14.5783C10.9906 14.5828 11.0482 14.586 11.1058 14.5869C11.7216 14.6052 12.3264 14.4201 12.827 14.0608V12.8082H10.987V11.1428H14.5961V14.9499C13.6302 15.8436 12.3625 16.3401 11.0464 16.341C8.68663 16.3972 6.72823 14.5293 6.672 12.1696C6.66972 12.0567 6.67155 11.9437 6.67749 11.8308Z" fill="white"/>
<path d="M15.3641 11.8308V11.8062C15.2997 9.36729 17.2242 7.33804 19.6636 7.27358C22.1029 7.20912 24.1317 9.13369 24.1961 11.573C24.198 11.6425 24.198 11.7124 24.1966 11.7819V11.8066C24.261 14.2455 22.3365 16.2747 19.8972 16.3392C17.4583 16.4036 15.429 14.4791 15.3646 12.0398C15.3628 11.9703 15.3628 11.9008 15.3641 11.8308ZM22.2857 11.8308V11.8062C22.3708 10.3707 21.2759 9.13872 19.8405 9.05369C19.8162 9.05232 19.7925 9.05141 19.7682 9.05049C18.3529 9.08615 17.2348 10.2619 17.2704 11.6772C17.2713 11.712 17.2727 11.7467 17.275 11.7819V11.8066C17.19 13.242 18.2848 14.474 19.7202 14.5591C19.7445 14.5604 19.7682 14.5614 19.7925 14.5623C21.2078 14.5266 22.326 13.3508 22.2903 11.9355C22.2894 11.9008 22.288 11.8656 22.2857 11.8308Z" fill="white"/>
<defs>
<linearGradient id="paint0_linear_629_4665" x1="24.7787" y1="12.508" x2="16.2258" y2="25.5487" gradientUnits="userSpaceOnUse">
<stop offset="0.174" stop-color="#078EFC"/>
<stop offset="0.204" stop-color="#118AFC"/>
<stop offset="0.435" stop-color="#5971FC"/>
<stop offset="0.627" stop-color="#8E5EFC"/>
<stop offset="0.77" stop-color="#AF52FC"/>
<stop offset="0.849" stop-color="#BB4EFC"/>
</linearGradient>
<linearGradient id="paint1_linear_629_4665" x1="3.30726" y1="13.7758" x2="20.6523" y2="0.726539" gradientUnits="userSpaceOnUse">
<stop offset="0.174" stop-color="#078EFC"/>
<stop offset="0.204" stop-color="#118AFC"/>
<stop offset="0.435" stop-color="#5971FC"/>
<stop offset="0.627" stop-color="#8E5EFC"/>
<stop offset="0.77" stop-color="#AF52FC"/>
<stop offset="0.849" stop-color="#BB4EFC"/>
</linearGradient>
<linearGradient id="paint2_linear_629_4665" x1="4.51512" y1="26.6258" x2="26.3208" y2="12.6137" gradientUnits="userSpaceOnUse">
<stop stop-color="#078EFC"/>
<stop offset="0.106" stop-color="#15A7D3"/>
<stop offset="0.228" stop-color="#23BFAA"/>
<stop offset="0.348" stop-color="#2DD28B"/>
<stop offset="0.463" stop-color="#35DF74"/>
<stop offset="0.573" stop-color="#39E767"/>
<stop offset="0.67" stop-color="#3BEA62"/>
</linearGradient>
</defs>
</svg>
