<svg width="32" height="32" viewBox="0 0 32 32" fill="none" xmlns="http://www.w3.org/2000/svg">
<g clip-path="url(#clip0_629_4780)">
<path d="M28.0229 0.411447C27.2458 0.0457328 26.3772 -0.0456958 25.5086 0.0457328C25.3715 0.0457328 4.80005 1.78288 4.80005 1.78288L19.3372 18.9257L21.9886 19.0629L30.3086 10.0572C33.0972 7.26859 32.5029 2.28573 28.0229 0.411447Z" fill="url(#paint0_linear_629_4780)"/>
<path d="M24.5028 21.5772L23.9085 22.4915L16.5943 13.5772L9.50854 18.3315L21.2571 31.0857C21.4857 31.3143 21.8057 31.4972 22.1257 31.68C22.7657 32 23.4971 32.0915 24.2285 31.8629C24.9143 31.68 25.4171 31.3143 25.8285 30.9029C25.8743 30.8572 30.7657 26.0115 30.7657 26.0115L24.5028 21.5772Z" fill="url(#paint1_linear_629_4780)"/>
<path d="M20.8914 19.0172L8.95995 3.84001C8.45709 3.10858 7.67995 2.51429 6.67424 2.10287C5.89709 1.78287 4.98281 1.69144 4.15995 1.87429C-0.22862 2.83429 -1.23433 7.63429 1.59995 10.1943L9.87424 18.6972L20.8914 19.0172Z" fill="url(#paint2_linear_629_4780)"/>
<path d="M28.8914 18.5143C27.3371 18.0571 26.4685 18.1943 24.4114 18.1485L7.03995 15.68L2.05709 20.4343C-1.0972 23.5428 -0.594339 28.9828 4.06852 31.3143C5.25709 31.9085 6.58281 32.0914 7.81709 31.9085C16.6399 30.2628 27.7028 27.6114 27.7942 27.6114C27.9771 27.5657 28.2057 27.52 28.3885 27.4743C31.2685 26.6057 32.4571 23.9085 31.7714 21.6228C31.4057 20.3428 30.3999 18.9714 28.8914 18.5143Z" fill="url(#paint3_linear_629_4780)"/>
<path d="M6.12573 6.1257H25.8743V25.8743H6.12573V6.1257Z" fill="black"/>
<path d="M7.95422 8.73145H9.78279V12.0229H13.1657V8.73145H14.9942V17.0057H13.1657V13.6686H9.78279V17.0057H7.95422V8.73145Z" fill="white"/>
<path d="M16.3199 8.73145H20.1599C21.1199 8.73145 21.8513 9.00573 22.3085 9.46287C22.6742 9.82859 22.857 10.2857 22.857 10.88V10.9257C22.857 11.84 22.3542 12.3886 21.7599 12.7086C22.7199 13.0743 23.3142 13.6229 23.3142 14.7657V14.8114C23.3142 16.32 22.0799 17.0972 20.2056 17.0972H16.2742V8.73145H16.3199ZM21.1199 11.1543C21.1199 10.6057 20.7085 10.2857 19.9313 10.2857H18.1485V12.0229H19.8399C20.617 12.0686 21.1199 11.7943 21.1199 11.1543ZM20.2056 13.5772H18.1027V15.4057H20.2513C21.0742 15.4057 21.5313 15.1314 21.5313 14.4914V14.4457C21.577 13.9429 21.1656 13.5772 20.2056 13.5772Z" fill="white"/>
<path d="M8 22.1714H15.4057V23.4057H8V22.1714Z" fill="white"/>
</g>
<defs>
<linearGradient id="paint0_linear_629_4780" x1="18.4755" y1="0.406419" x2="18.096" y2="17.9767" gradientUnits="userSpaceOnUse">
<stop offset="0.328" stop-color="#00B8F1"/>
<stop offset="0.973" stop-color="#9758FB"/>
</linearGradient>
<linearGradient id="paint1_linear_629_4780" x1="26.672" y1="29.2649" x2="5.4546" y2="6.23363" gradientUnits="userSpaceOnUse">
<stop stop-color="#FFEE45"/>
<stop offset="1" stop-color="#9758FB"/>
</linearGradient>
<linearGradient id="paint2_linear_629_4780" x1="14.1828" y1="4.33784" x2="9.77915" y2="13.7518" gradientUnits="userSpaceOnUse">
<stop offset="0.328" stop-color="#00B8F1"/>
<stop offset="0.79" stop-color="#9758FB"/>
</linearGradient>
<linearGradient id="paint3_linear_629_4780" x1="-1.48988" y1="23.8281" x2="31.4587" y2="23.8281" gradientUnits="userSpaceOnUse">
<stop stop-color="#00B8F1"/>
<stop offset="0.306" stop-color="#9758FB"/>
<stop offset="0.989" stop-color="#FFEE45"/>
</linearGradient>
<clipPath id="clip0_629_4780">
<rect width="32" height="32" fill="white"/>
</clipPath>
</defs>
</svg>
