<svg width="32" height="32" viewBox="0 0 32 32" fill="none" xmlns="http://www.w3.org/2000/svg">
<g clip-path="url(#clip0_629_4616)">
<path d="M32 12.4512L28.9787 10.8571L9.56614 0L1.74945 8.19246L9.88294 18.7739L27.674 20.2958L32 12.4512Z" fill="url(#paint0_linear_629_4616)"/>
<path d="M23.0505 7.3746L20.2382 0.506027L12.6368 7.98671L5.37964 22.9458L22.5879 32L32 26.5051L23.0505 7.3746Z" fill="url(#paint1_linear_629_4616)"/>
<path d="M9.56617 0L0 6.44343L3.55611 28.4215L12.7305 31.9493L24.5851 22.3191L9.56617 0Z" fill="url(#paint2_linear_629_4616)"/>
<path d="M6.08093 6.03109H26.0188V25.9689H6.08093V6.03109Z" fill="black"/>
<path d="M7.87543 8.62304H11.7134C12.1562 8.59688 12.5999 8.65825 13.0189 8.80365C13.438 8.94904 13.8243 9.17561 14.1558 9.4704C14.6261 9.98687 14.8764 10.6664 14.8536 11.3645C14.8754 11.9325 14.7123 12.4923 14.3887 12.9597C14.0651 13.4271 13.5986 13.7768 13.0592 13.9564L15.1029 16.947H12.9595L11.1652 14.2554H9.71967V16.947H7.87543V8.62304ZM11.5639 12.6604C12.4611 12.6604 12.9596 12.162 12.9596 11.4642C12.9596 10.6667 12.4113 10.2679 11.5141 10.2679H9.66982V12.6604H11.5639V12.6604Z" fill="white"/>
<path d="M16.4985 8.62306H19.7882C22.4299 8.62306 24.2243 10.4175 24.2243 12.81C24.2243 15.1527 22.4299 16.9969 19.7882 16.9969H16.4985V8.62306ZM18.3427 10.2679V15.3022H19.7882C20.1232 15.3232 20.459 15.2736 20.7736 15.1565C21.0882 15.0393 21.3747 14.8574 21.6144 14.6223C21.8541 14.3873 22.0417 14.1045 22.165 13.7923C22.2884 13.4801 22.3447 13.1454 22.3303 12.81C22.3499 12.471 22.2976 12.1317 22.1768 11.8144C22.056 11.4971 21.8694 11.2089 21.6293 10.9688C21.3893 10.7287 21.1011 10.5422 20.7838 10.4214C20.4664 10.3006 20.1272 10.2483 19.7882 10.2679H18.3427Z" fill="white"/>
<path d="M7.87524 22.2304H15.3518V23.4766H7.87524V22.2304Z" fill="white"/>
</g>
<defs>
<linearGradient id="paint0_linear_629_4616" x1="32.1033" y1="19.877" x2="-2.34518" y2="3.72937" gradientUnits="userSpaceOnUse">
<stop stop-color="#C90F5E"/>
<stop offset="0.221" stop-color="#C90F5E"/>
<stop offset="0.236" stop-color="#C90F5E"/>
<stop offset="0.356" stop-color="#CA135C"/>
<stop offset="0.466" stop-color="#CE1E57"/>
<stop offset="0.574" stop-color="#D4314E"/>
<stop offset="0.678" stop-color="#DC4B41"/>
<stop offset="0.782" stop-color="#E66D31"/>
<stop offset="0.883" stop-color="#F3961D"/>
<stop offset="0.942" stop-color="#FCB20F"/>
</linearGradient>
<linearGradient id="paint1_linear_629_4616" x1="11.2727" y1="4.24408" x2="21.0505" y2="31.2439" gradientUnits="userSpaceOnUse">
<stop offset="0.042" stop-color="#077CFB"/>
<stop offset="0.445" stop-color="#C90F5E"/>
<stop offset="0.958" stop-color="#077CFB"/>
</linearGradient>
<linearGradient id="paint2_linear_629_4616" x1="7.95246" y1="3.62697" x2="15.1744" y2="29.2933" gradientUnits="userSpaceOnUse">
<stop offset="0.277" stop-color="#C90F5E"/>
<stop offset="0.974" stop-color="#FCB20F"/>
</linearGradient>
<clipPath id="clip0_629_4616">
<rect width="32" height="32" fill="white"/>
</clipPath>
</defs>
</svg>
