<svg width="32" height="32" viewBox="0 0 32 32" fill="none" xmlns="http://www.w3.org/2000/svg">
<g clip-path="url(#clip0_629_4824)">
<path d="M27.6572 10.9715L4.38858 12.2972L4.25143 3.38288L25.2343 0.0914536L27.6572 10.9715Z" fill="url(#paint0_linear_629_4824)"/>
<path d="M9.28 19.7485L16.7771 10.24L8.64 4.66283C7.22285 3.38283 5.07428 2.83425 2.88 3.74854C1.78285 4.20568 0.914282 5.07425 0.457139 6.1714C-0.502861 8.45711 0.091425 10.6971 1.55428 12.0685L9.28 19.7485Z" fill="url(#paint1_linear_629_4824)"/>
<path d="M9.28001 19.7486L20.8 31.1314L27.9771 17.7371L16.7772 10.24L9.28001 19.7486Z" fill="url(#paint2_linear_629_4824)"/>
<path d="M24.64 16.7314L5.48572 15.8171C4.75429 15.68 3.93143 15.7257 3.06286 16.0914C2.24 16.4571 1.6 17.0514 1.28 17.8743C0.320003 20.1143 1.46286 22.2628 3.33715 22.9943L20.48 31.0857C20.7086 31.2228 21.8514 31.5428 21.8514 31.5428C22.7657 31.8171 23.7714 31.9543 24.6857 31.9543C25.8286 31.9543 27.1086 31.6343 28.3886 30.9943C29.5771 30.4 30.3086 29.44 30.9486 28.2514C31.7257 26.88 31.9543 25.6 31.9543 24.32C31.9086 20.3428 28.6171 17.0057 24.64 16.7314Z" fill="url(#paint3_linear_629_4824)"/>
<path d="M23.8171 0.502874C23.4971 0.640017 23.1771 0.822874 22.9028 1.00573L12.2971 9.00573L17.5543 16.6857L29.0743 10.24C29.9428 9.82859 30.6286 9.09716 31.04 8.2743C33.6 3.33716 28.8457 -1.59998 23.8171 0.502874Z" fill="url(#paint4_linear_629_4824)"/>
<path d="M6.62856 22.7657L17.5543 16.6857L12.2971 9.00574L2.23999 16.5486L6.62856 22.7657Z" fill="#905CFB"/>
<path d="M9.32572 25.7828V16L5.48572 15.8171C4.75429 15.68 3.93143 15.7257 3.06286 16.0914C2.24 16.4571 1.6 17.0514 1.28 17.8743C0.320003 20.1143 1.46286 22.2628 3.33715 22.9943H3.38286L9.32572 25.7828Z" fill="url(#paint5_linear_629_4824)"/>
<path d="M6.1257 6.1257H25.8743V25.8743H6.1257V6.1257Z" fill="black"/>
<path d="M8 13.44V8.68571H9.82857V13.3943C9.82857 14.7657 10.5143 15.4514 11.6114 15.4514C12.7086 15.4514 13.3943 14.7657 13.3943 13.44V8.68571H15.2229V13.3486C15.2229 15.8629 13.8057 17.0971 11.5657 17.0971C9.37143 17.1429 8 15.8629 8 13.44Z" fill="white"/>
<path d="M16.1828 8.68571H19.5657C21.5314 8.68571 22.72 9.87429 22.72 11.5657V11.6114C22.72 13.5314 21.2114 14.5371 19.3828 14.5371H18.0114V17.0057H16.1828V8.68571ZM19.4743 12.8914C20.3886 12.8914 20.9371 12.3429 20.9371 11.6571V11.6114C20.9371 10.7886 20.3886 10.3771 19.4743 10.3771H18.0571V12.8914H19.4743Z" fill="white"/>
<path d="M8 22.1714H15.4057V23.4057H8V22.1714Z" fill="white"/>
</g>
<defs>
<linearGradient id="paint0_linear_629_4824" x1="29.6745" y1="5.03317" x2="8.00595" y2="8.28345" gradientUnits="userSpaceOnUse">
<stop stop-color="#FF8200"/>
<stop offset="0.973" stop-color="#905CFB"/>
</linearGradient>
<linearGradient id="paint1_linear_629_4824" x1="7.16571" y1="15.9095" x2="9.18537" y2="4.62625" gradientUnits="userSpaceOnUse">
<stop stop-color="#0CB0F2"/>
<stop offset="0.973" stop-color="#905CFB"/>
</linearGradient>
<linearGradient id="paint2_linear_629_4824" x1="26.6674" y1="24.533" x2="12.3328" y2="17.5323" gradientUnits="userSpaceOnUse">
<stop stop-color="#0CB0F2"/>
<stop offset="0.973" stop-color="#905CFB"/>
</linearGradient>
<linearGradient id="paint3_linear_629_4824" x1="27.7385" y1="25.6265" x2="3.36092" y2="16.8626" gradientUnits="userSpaceOnUse">
<stop stop-color="#0CB0F2"/>
<stop offset="0.973" stop-color="#905CFB"/>
</linearGradient>
<linearGradient id="paint4_linear_629_4824" x1="29.3458" y1="2.71316" x2="8.46811" y2="19.5401" gradientUnits="userSpaceOnUse">
<stop stop-color="#FF8200"/>
<stop offset="0.973" stop-color="#905CFB"/>
</linearGradient>
<linearGradient id="paint5_linear_629_4824" x1="13.9191" y1="22.5111" x2="1.03543" y2="17.9323" gradientUnits="userSpaceOnUse">
<stop stop-color="#0CB0F2"/>
<stop offset="0.973" stop-color="#905CFB"/>
</linearGradient>
<clipPath id="clip0_629_4824">
<rect width="32" height="32" fill="white"/>
</clipPath>
</defs>
</svg>
