<svg width="32" height="32" viewBox="0 0 32 32" fill="none" xmlns="http://www.w3.org/2000/svg">
<g clip-path="url(#clip0_629_4839)">
<path d="M30.5829 21.7143C30.4914 21.6229 24.5943 15.9543 24.5943 15.9543C24.5943 15.9543 29.0743 11.2 30.2629 10.0114C30.6286 9.64573 30.9486 9.28001 31.1771 8.82287C32.8229 6.0343 31.8629 2.46859 29.0743 0.822872C27.0171 -0.365699 24.4571 -0.182842 22.6286 1.18859C22.3086 1.41716 22.0343 1.64573 21.76 1.92001C21.6229 2.10287 15.4057 7.77144 10.0114 12.7086L20.1143 19.1086L9.50857 31.04C8.86857 31.4972 8.22857 31.7714 7.54285 31.9086C7.68 31.9086 7.77143 31.9086 7.90857 31.8629C10.0114 31.5429 27.9771 28.5257 28.8457 28.3429C29.8971 28.16 30.8571 27.52 31.4514 26.56C32.4571 24.9143 32 22.8572 30.5829 21.7143Z" fill="url(#paint0_linear_629_4839)"/>
<path d="M20.9828 13.9429C20.8 12.7086 20.16 11.7029 19.2457 10.9714C18.2857 10.24 10.88 2.56 10.0571 1.69143C8.77713 0.457145 6.94855 -0.228569 5.07427 0.0914308C1.87427 0.548574 -0.365732 3.56572 0.137125 6.76572C0.365696 8.36572 1.27998 9.73715 2.46855 10.6057C3.65712 11.52 12.9828 17.92 13.5771 18.3771C14.5371 19.1086 15.8171 19.52 17.0971 19.2914C19.6114 18.8343 21.3943 16.4571 20.9828 13.9429Z" fill="url(#paint1_linear_629_4839)"/>
<path d="M10.5143 30.9943C10.56 30.9943 21.1657 19.0628 21.1657 19.0628L10.4686 12.2971C6.6743 15.7714 3.1543 18.9257 2.33144 19.7028C1.82858 20.16 1.32573 20.7543 0.960012 21.3943C-1.0057 24.7771 0.137155 29.0743 3.52001 31.04C4.89144 31.8171 8.00001 32.7771 10.5143 30.9943Z" fill="url(#paint2_linear_629_4839)"/>
<path d="M6.1257 6.1257H25.8743V25.8743H6.1257V6.1257Z" fill="black"/>
<path d="M7.95428 22.1714H15.36V23.4057H7.95428V22.1714Z" fill="white"/>
<path d="M10.88 13.6686L7.77143 8.73145H9.87429L11.7943 11.9772L13.8057 8.73145H15.8629L12.7086 13.6229V16.9143H10.88V13.6686Z" fill="white"/>
<path d="M19.0171 10.3772H16.5028V8.73145H23.3143V10.3772H20.8V16.9143H19.0171V10.3772Z" fill="white"/>
</g>
<defs>
<linearGradient id="paint0_linear_629_4839" x1="3.23794" y1="25.03" x2="29.3056" y2="13.147" gradientUnits="userSpaceOnUse">
<stop stop-color="#905CFB"/>
<stop offset="0.165" stop-color="#6677F8"/>
<stop offset="0.378" stop-color="#3596F5"/>
<stop offset="0.54" stop-color="#17A9F3"/>
<stop offset="0.632" stop-color="#0CB0F2"/>
</linearGradient>
<linearGradient id="paint1_linear_629_4839" x1="13.856" y1="12.8599" x2="0.48821" y2="1.0528" gradientUnits="userSpaceOnUse">
<stop stop-color="#905CFB"/>
<stop offset="0.072" stop-color="#A554E6"/>
<stop offset="0.252" stop-color="#D641B5"/>
<stop offset="0.39" stop-color="#F43597"/>
<stop offset="0.468" stop-color="#FF318C"/>
</linearGradient>
<linearGradient id="paint2_linear_629_4839" x1="2.27795" y1="26.8274" x2="33.8391" y2="6.94079" gradientUnits="userSpaceOnUse">
<stop stop-color="#905CFB"/>
<stop offset="0.165" stop-color="#6677F8"/>
<stop offset="0.378" stop-color="#3596F5"/>
<stop offset="0.54" stop-color="#17A9F3"/>
<stop offset="0.632" stop-color="#0CB0F2"/>
</linearGradient>
<clipPath id="clip0_629_4839">
<rect width="32" height="32" fill="white"/>
</clipPath>
</defs>
</svg>
