<svg width="32" height="32" viewBox="0 0 32 32" fill="none" xmlns="http://www.w3.org/2000/svg">
<circle opacity="0.852" cx="16" cy="16" r="14" fill="url(#paint0_radial_629_5034)"/>
<path d="M6.75137 26.5334C6.73227 26.5194 6.7127 26.5017 6.69312 26.4802C6.33073 26.1505 5.74045 25.6305 5.12362 24.8445C4.5909 23.689 4.89287 21.748 6.20386 19.0076C8.05357 15.141 11.0131 11.2151 12.2265 9.82256C11.8813 9.43738 10.8119 8.38259 9.29659 7.24483C7.7813 6.10708 6.67738 5.99054 6.29264 6.05967C6.64779 5.67449 7.47646 4.94858 8.17196 4.4597C10.3265 3.39305 14.3081 5.19549 16.0148 6.22263V13.2892C11.6642 16.6373 7.63924 21.8075 6.82536 23.8223C6.20418 25.3601 6.44975 26.2129 6.69312 26.4802C6.71325 26.4985 6.73269 26.5162 6.75137 26.5334Z" fill="url(#paint1_linear_629_5034)"/>
<path d="M6.75137 26.533C6.73227 26.519 6.7127 26.5013 6.69311 26.4798C6.33072 26.1501 5.74045 25.6301 5.12362 24.8441C4.5909 23.6886 4.89287 21.7477 6.20386 19.0072C8.35133 14.5182 12.2265 9.8222 12.2265 9.8222C12.2265 9.8222 12.9185 11.5404 14.4888 14.5182C10.4444 18.1034 7.63923 21.8072 6.82536 23.8219C6.20418 25.3597 6.44974 26.2125 6.69311 26.4798C6.71325 26.4981 6.73268 26.5159 6.75137 26.533Z" fill="url(#paint2_linear_629_5034)"/>
<path d="M25.2782 26.5334C25.2973 26.5194 25.3168 26.5017 25.3364 26.4802C25.6988 26.1505 26.2891 25.6305 26.9059 24.8445C27.4386 23.689 27.1367 21.748 25.8257 19.0076C23.976 15.141 21.0164 11.2151 19.803 9.82256C20.1483 9.43738 21.2177 8.38259 22.733 7.24483C24.2482 6.10708 25.3522 5.99054 25.7369 6.05967C25.3818 5.67449 24.5531 4.94858 23.8576 4.4597C21.703 3.39305 17.7215 5.19549 16.0148 6.22263V13.2892C20.3653 16.6373 24.3903 21.8075 25.2042 23.8223C25.8254 25.3601 25.5798 26.2129 25.3364 26.4802C25.3163 26.4985 25.2969 26.5162 25.2782 26.5334Z" fill="url(#paint3_linear_629_5034)"/>
<path d="M25.2782 26.533C25.2973 26.519 25.3168 26.5013 25.3364 26.4798C25.6988 26.1501 26.2891 25.6301 26.9059 24.8441C27.4386 23.6886 27.1367 21.7477 25.8257 19.0072C23.6782 14.5182 19.803 9.8222 19.803 9.8222C19.803 9.8222 19.1111 11.5404 17.5407 14.5182C21.5851 18.1034 24.3903 21.8072 25.2042 23.8219C25.8254 25.3597 25.5798 26.2125 25.3364 26.4798C25.3163 26.4981 25.2969 26.5159 25.2782 26.533Z" fill="url(#paint4_linear_629_5034)"/>
<defs>
<radialGradient id="paint0_radial_629_5034" cx="0" cy="0" r="1" gradientUnits="userSpaceOnUse" gradientTransform="translate(16 14.5) rotate(90.0548) scale(15.5)">
<stop stop-color="#FAFAFA"/>
<stop offset="0.499976" stop-color="#EFEFEF"/>
<stop offset="0.828794" stop-color="#C0BEC0"/>
<stop offset="1" stop-color="#879288"/>
</radialGradient>
<linearGradient id="paint1_linear_629_5034" x1="12.9925" y1="4.72595" x2="13.2296" y2="12.7852" gradientUnits="userSpaceOnUse">
<stop stop-color="#008B00"/>
<stop offset="1" stop-color="#6CC329"/>
</linearGradient>
<linearGradient id="paint2_linear_629_5034" x1="10.1481" y1="12.6666" x2="12.874" y2="16.4" gradientUnits="userSpaceOnUse">
<stop stop-color="#008C00"/>
<stop offset="1" stop-color="#48BF21"/>
</linearGradient>
<linearGradient id="paint3_linear_629_5034" x1="19.037" y1="4.72595" x2="18.8" y2="12.7852" gradientUnits="userSpaceOnUse">
<stop stop-color="#008B00"/>
<stop offset="1" stop-color="#6CC329"/>
</linearGradient>
<linearGradient id="paint4_linear_629_5034" x1="21.8814" y1="12.6666" x2="19.1555" y2="16.4" gradientUnits="userSpaceOnUse">
<stop stop-color="#008C00"/>
<stop offset="1" stop-color="#48BF21"/>
</linearGradient>
</defs>
</svg>
