<svg width="32" height="32" viewBox="0 0 32 32" fill="none" xmlns="http://www.w3.org/2000/svg">
<path opacity="0.26" d="M5.30599 19.4875L5.3014 13.9287V12.264H2.00049V2.99997L15.9203 3.0678L20.2746 3.0774C25.4858 3.0774 29.9993 7.15206 29.9993 12.5335V28.9435H15.0307C9.82419 28.9435 5.30599 24.8639 5.30599 19.4874V19.4875Z" fill="black"/>
<path d="M27.9998 24.6519V12.7212C27.9998 8.73532 24.6178 5.50419 20.4451 5.50419H16.1141V5.49459L4.40082 5.44168V9.79476H6.19887C7.454 9.79476 7.67569 10.6903 7.67569 11.9298L7.68499 19.6257C7.68499 23.6116 11.0669 26.8426 15.235 26.8426H25.5261C26.8454 26.8426 27.9999 25.9791 27.9999 24.6518L27.9998 24.6519Z" fill="url(#paint0_linear_629_4129)"/>
<path opacity="0.175" d="M26.9783 25.6599C24.3466 23.7854 22.4827 21.6322 20.9125 18.7817C17.8175 12.8722 18.5412 9.93863 10.8767 9.24692C8.66491 9.24692 7.19267 8.74094 4.8645 8.74094V9.57893C4.8645 9.57893 5.78453 10.0616 6.59321 10.0616C7.79913 10.0616 8.00836 10.9262 8.00836 12.1171L8.01601 19.4932C8.01601 23.323 11.2703 26.4268 15.275 26.4268H25.1578C25.8832 26.4268 26.5348 26.1313 26.9783 25.6599Z" fill="url(#paint1_linear_629_4129)"/>
<path d="M17.8191 9.97644C16.88 9.97644 16.0456 10.3368 15.3751 11.0368C14.705 11.7365 14.3532 12.6099 14.3532 13.5956V18.5784H16.5397V13.5955C16.5397 13.2177 16.6589 12.9223 16.92 12.6498C17.1818 12.3765 17.4592 12.2527 17.8191 12.2527C18.1867 12.2527 18.4598 12.3759 18.7223 12.6498C18.9832 12.9222 19.1026 13.2177 19.1026 13.5955V18.5783H21.2891V13.5955C21.2891 13.2177 21.4083 12.9223 21.6693 12.6498C21.9318 12.3758 22.2049 12.2527 22.5725 12.2527C22.9326 12.2527 23.2098 12.3765 23.4716 12.6498C23.7326 12.9222 23.8519 13.2177 23.8519 13.5955L23.8638 19.4175C23.8638 20.6595 22.7195 21.7062 21.2495 21.7062L14.1987 21.6776C13.0643 21.6776 12.0953 20.5362 12.0953 19.0695V8.10602H10.0276V19.4913C10.0276 20.6993 10.4553 21.7586 11.2873 22.6153C11.9984 23.3407 12.8535 23.77 13.8144 23.8761V23.9172H21.6654C22.8717 23.9172 23.9316 23.4535 24.7868 22.5538H24.7907C25.5179 21.7816 25.9431 20.8562 26.0463 19.8147L26.0384 13.5956C26.0384 12.6099 25.6866 11.7365 25.0165 11.0368C24.346 10.3368 23.5116 9.97644 22.5725 9.97644C21.6506 9.97644 20.844 10.3307 20.1919 10.9795C19.5416 10.3317 18.7405 9.97644 17.8191 9.97644Z" fill="black" fill-opacity="0.08"/>
<path d="M17.6446 10.0359C16.7055 10.0359 15.871 10.3962 15.2005 11.0962C14.5304 11.7959 14.1785 12.6693 14.1785 13.6551V18.6377H16.3651V13.6551C16.3651 13.2773 16.4843 12.9819 16.7454 12.7093C17.0072 12.436 17.2846 12.3122 17.6446 12.3122C18.0121 12.3122 18.2853 12.4354 18.5477 12.7093C18.8088 12.9818 18.928 13.2773 18.928 13.6551V18.6377H21.1145V13.6551C21.1145 13.2773 21.2338 12.9819 21.4948 12.7093C21.7573 12.4353 22.0304 12.3122 22.398 12.3122C22.7581 12.3122 23.0353 12.436 23.2971 12.7093C23.5582 12.9818 23.6774 13.2773 23.6774 13.6551L23.6894 19.477C23.6894 20.719 22.545 21.7657 21.0749 21.7657L14.024 21.737C12.8896 21.737 11.9207 20.5957 11.9207 19.1291V8.16544H9.85291V19.5507C9.85291 20.7587 10.2805 21.818 11.1125 22.6746C11.8237 23.4001 12.6789 23.8703 13.6398 23.9766H21.4909C22.6972 23.9766 23.7573 23.5129 24.6123 22.6132H24.6163C25.3436 21.8409 25.7686 20.9156 25.872 19.8741L25.8641 13.6551C25.8641 12.6693 25.5122 11.7958 24.842 11.0962C24.1716 10.3962 23.3371 10.0359 22.398 10.0359C21.4762 10.0359 20.6696 10.3901 20.0173 11.0389C19.367 10.3911 18.566 10.0359 17.6446 10.0359Z" fill="white"/>
<path d="M15.1667 28.4949C10.1963 28.4949 5.8832 24.6005 5.8832 19.468L5.87883 13.2359V11.6467H2.72754V3.72858L20.1725 3.80239C25.1472 3.80239 29.4558 7.69222 29.4558 12.8294V28.4949H15.1667ZM27.4313 24.2927V12.8294C27.4313 8.99968 24.1819 5.89528 20.1726 5.89528L4.75691 5.83514V9.55405H6.01762C6.87355 9.55405 7.9035 10.3854 7.9035 11.6053L7.91246 19.4633C7.91246 23.2931 11.1619 26.3975 15.1666 26.3975H25.0544C26.322 26.3975 27.4313 25.5678 27.4313 24.2927Z" fill="white"/>
<defs>
<linearGradient id="paint0_linear_629_4129" x1="6.65311" y1="8.17244" x2="19.347" y2="21.6397" gradientUnits="userSpaceOnUse">
<stop stop-color="#C7F994"/>
<stop offset="1" stop-color="#87CF3E"/>
</linearGradient>
<linearGradient id="paint1_linear_629_4129" x1="9.24547" y1="24.6119" x2="17.1541" y2="12.6142" gradientUnits="userSpaceOnUse">
<stop stop-color="#3D3D3D"/>
<stop offset="1" stop-opacity="0.114"/>
</linearGradient>
</defs>
</svg>
