<svg width="24" height="24" xmlns="http://www.w3.org/2000/svg" viewBox="0 0 24 24"><title>webcam 01</title><g fill="none" class="nc-icon-wrapper"><path opacity=".4" d="M7 22H12M12 22H17M12 22V18" stroke="#F7F7F7" stroke-width="2" stroke-linecap="round" stroke-linejoin="round"></path><path d="M12 18C16.4183 18 20 14.4183 20 10C20 5.58172 16.4183 2 12 2C7.58172 2 4 5.58172 4 10C4 14.4183 7.58172 18 12 18Z" stroke="#F7F7F7" stroke-width="2" stroke-linecap="round" stroke-linejoin="round"></path><path d="M12 13C13.6569 13 15 11.6569 15 10C15 8.34315 13.6569 7 12 7C10.3431 7 9 8.34315 9 10C9 11.6569 10.3431 13 12 13Z" stroke="#F7F7F7" stroke-width="2" stroke-linecap="round" stroke-linejoin="round"></path></g></svg>